<?xml version="1.0" encoding="UTF-8" standalone="no"?>
<svg
   class="svg-icon"
   style="width: 1em; height: 1em;vertical-align: middle;fill: currentColor;overflow: hidden;"
   viewBox="0 0 1024 1024"
   version="1.1"
   id="svg44"
   sodipodi:docname="fire2.svg"
   inkscape:version="1.2.2 (b0a8486541, 2022-12-01)"
   xmlns:inkscape="http://www.inkscape.org/namespaces/inkscape"
   xmlns:sodipodi="http://sodipodi.sourceforge.net/DTD/sodipodi-0.dtd"
   xmlns:xlink="http://www.w3.org/1999/xlink"
   xmlns="http://www.w3.org/2000/svg"
   xmlns:svg="http://www.w3.org/2000/svg">
  <defs
     id="defs48">
    <linearGradient
       inkscape:collect="always"
       id="linearGradient366">
      <stop
         style="stop-color:#f9b729;stop-opacity:1;"
         offset="0"
         id="stop362" />
      <stop
         style="stop-color:#992729;stop-opacity:1;"
         offset="1"
         id="stop364" />
    </linearGradient>
    <linearGradient
       inkscape:collect="always"
       xlink:href="#linearGradient366"
       id="linearGradient368"
       x1="561.20654"
       y1="954.44348"
       x2="528.14423"
       y2="424.82373"
       gradientUnits="userSpaceOnUse"
       gradientTransform="matrix(0.04705962,0,0,0.04682056,105.74009,51.852961)" />
  </defs>
  <sodipodi:namedview
     id="namedview46"
     pagecolor="#ffffff"
     bordercolor="#000000"
     borderopacity="0.25"
     inkscape:showpageshadow="2"
     inkscape:pageopacity="0.0"
     inkscape:pagecheckerboard="0"
     inkscape:deskcolor="#d1d1d1"
     showgrid="false"
     inkscape:zoom="0.75585938"
     inkscape:cx="189.85013"
     inkscape:cy="512"
     inkscape:window-width="1920"
     inkscape:window-height="960"
     inkscape:window-x="0"
     inkscape:window-y="36"
     inkscape:window-maximized="1"
     inkscape:current-layer="svg44" />
  <path
     d="m 121.55212,97.4 c -2.86122,-5.993033 -1.35531,-9.439023 0.90355,-12.585367 2.40945,-3.595817 3.01181,-7.041811 3.01181,-7.041811 0,0 1.95768,2.397213 1.20473,6.292684 3.313,-3.745644 3.91536,-9.738678 3.46359,-11.986063 7.52954,5.243902 10.84253,16.780488 6.4754,25.17073 23.19098,-13.184667 5.72245,-32.811845 2.71064,-34.909407 1.05413,2.247387 1.20472,5.993032 -0.90355,7.790942 C 134.95471,56.947038 126.37103,54.4 126.37103,54.4 c 1.05413,6.74216 -3.61418,14.083623 -8.1319,19.627178 -0.1506,-2.696865 -0.30118,-4.494774 -1.80709,-7.191638 -0.30119,4.944252 -4.06596,8.83972 -5.12009,13.783972 -1.35532,6.74216 1.05413,11.536589 10.24017,16.780488 z"
     id="path42"
     style="fill:url(#linearGradient368);fill-opacity:1;stroke-width:0.0469399"
     inkscape:export-filename="flame.png"
     inkscape:export-xdpi="96"
     inkscape:export-ydpi="96" />
</svg>
