<?xml version="1.0" encoding="UTF-8" standalone="no"?>
<svg
   viewBox="0 0 640 640"
   version="1.1"
   id="svg68"
   sodipodi:docname="gear.svg"
   inkscape:version="1.2.2 (b0a8486541, 2022-12-01)"
   xmlns:inkscape="http://www.inkscape.org/namespaces/inkscape"
   xmlns:sodipodi="http://sodipodi.sourceforge.net/DTD/sodipodi-0.dtd"
   xmlns="http://www.w3.org/2000/svg"
   xmlns:svg="http://www.w3.org/2000/svg">
  <defs
     id="defs72" />
  <sodipodi:namedview
     id="namedview70"
     pagecolor="#ffffff"
     bordercolor="#000000"
     borderopacity="0.25"
     inkscape:showpageshadow="2"
     inkscape:pageopacity="0.0"
     inkscape:pagecheckerboard="0"
     inkscape:deskcolor="#d1d1d1"
     showgrid="false"
     inkscape:zoom="1.3109375"
     inkscape:cx="320"
     inkscape:cy="221.97855"
     inkscape:window-width="1920"
     inkscape:window-height="960"
     inkscape:window-x="0"
     inkscape:window-y="1116"
     inkscape:window-maximized="1"
     inkscape:current-layer="svg68" />
  <!--! Font Awesome Free 7.1.0 by @fontawesome - https://fontawesome.com License - https://fontawesome.com/license/free (Icons: CC BY 4.0, Fonts: SIL OFL 1.1, Code: MIT License) Copyright 2025 Fonticons, Inc. -->
  <path
     fill="currentColor"
     d="M 71.208051,48.703125 C 71.296349,48.295037 71.681919,48 72.129297,48 h 1.76008 c 0.447379,0 0.832948,0.295037 0.921246,0.703125 l 0.426776,1.930147 c 0.415002,0.165441 0.803515,0.377757 1.156708,0.628677 l 1.995542,-0.620405 c 0.423832,-0.132353 0.88887,0.03309 1.112559,0.397059 l 0.880041,1.428309 c 0.223689,0.36397 0.14422,0.821691 -0.191314,1.100184 l -1.568767,1.306985 c 0.02649,0.204044 0.03826,0.413603 0.03826,0.625919 0,0.212316 -0.01472,0.421875 -0.03826,0.625919 l 1.571711,1.309743 c 0.335533,0.278492 0.412059,0.73897 0.191313,1.100184 l -0.88004,1.428308 c -0.223689,0.361214 -0.688727,0.529412 -1.112559,0.397059 L 76.39705,59.740809 c -0.356136,0.250919 -0.744649,0.460478 -1.156708,0.628676 l -0.423832,1.92739 C 74.725268,62.707721 74.339699,63 73.895264,63 h -1.76008 c -0.447379,0 -0.832948,-0.295037 -0.921246,-0.703125 l -0.423832,-1.92739 c -0.415003,-0.165441 -0.800572,-0.377757 -1.156709,-0.628676 l -2.004372,0.620404 c -0.423832,0.132353 -0.88887,-0.03309 -1.112559,-0.397059 l -0.88004,-1.428308 c -0.223689,-0.363971 -0.144221,-0.821692 0.191313,-1.100184 l 1.57171,-1.309743 C 67.37296,55.921875 67.361187,55.712316 67.361187,55.5 c 0,-0.212316 0.01472,-0.421875 0.03826,-0.625919 l -1.57171,-1.309743 c -0.335534,-0.278492 -0.412059,-0.73897 -0.191313,-1.100184 l 0.88004,-1.428308 c 0.223689,-0.363971 0.688727,-0.529412 1.112559,-0.397059 l 1.995543,0.620404 c 0.356136,-0.250919 0.744649,-0.460478 1.156708,-0.628676 z m 1.801286,9.002757 c 1.300929,-0.0055 2.351679,-0.995404 2.345793,-2.214154 -0.0059,-1.21875 -1.062524,-2.203125 -2.363452,-2.19761 -1.300929,0.0055 -2.35168,0.995404 -2.345793,2.214154 0.0059,1.21875 1.062523,2.203125 2.363452,2.19761 z"
     id="path66"
     style="stroke-width:0.028488;fill:#b0e3f5;fill-opacity:1"
     inkscape:export-filename="gear.png"
     inkscape:export-xdpi="96"
     inkscape:export-ydpi="96" />
</svg>
