<?xml version="1.0" encoding="UTF-8" standalone="no"?>
<svg
   viewBox="0 0 640 640"
   version="1.1"
   id="svg12854"
   sodipodi:docname="wifi-strong.svg"
   inkscape:version="1.2.2 (b0a8486541, 2022-12-01)"
   xmlns:inkscape="http://www.inkscape.org/namespaces/inkscape"
   xmlns:sodipodi="http://sodipodi.sourceforge.net/DTD/sodipodi-0.dtd"
   xmlns="http://www.w3.org/2000/svg"
   xmlns:svg="http://www.w3.org/2000/svg">
  <defs
     id="defs12858" />
  <sodipodi:namedview
     id="namedview12856"
     pagecolor="#ffffff"
     bordercolor="#000000"
     borderopacity="0.25"
     inkscape:showpageshadow="2"
     inkscape:pageopacity="0.0"
     inkscape:pagecheckerboard="0"
     inkscape:deskcolor="#d1d1d1"
     showgrid="false"
     inkscape:zoom="4.8375"
     inkscape:cx="-6.0981912"
     inkscape:cy="115.76227"
     inkscape:window-width="1920"
     inkscape:window-height="960"
     inkscape:window-x="0"
     inkscape:window-y="36"
     inkscape:window-maximized="1"
     inkscape:current-layer="svg12854" />
  <!--! Font Awesome Free 7.1.0 by @fontawesome - https://fontawesome.com License - https://fontawesome.com/license/free (Icons: CC BY 4.0, Fonts: SIL OFL 1.1, Code: MIT License) Copyright 2025 Fonticons, Inc. -->
  <path
     fill="currentColor"
     d="m 44.606451,98.142857 c -3.945866,0 -7.518414,1.20536 -10.144651,3.167413 -0.551292,0.41183 -1.432492,0.40179 -1.96208,-0.0234 -0.529588,-0.42522 -0.520906,-1.1049 0.03039,-1.513387 C 35.651203,97.436384 39.913953,96 44.606451,96 c 4.692498,0 8.955248,1.436384 12.080686,3.773439 0.551292,0.411831 0.564315,1.091521 0.03039,1.513391 -0.533928,0.42188 -1.415128,0.43527 -1.96208,0.0234 -2.630577,-1.962048 -6.203126,-3.167407 -10.148991,-3.167407 z m -2.083626,11.250003 c 0,-0.88728 0.933291,-1.60714 2.083626,-1.60714 1.150335,0 2.083625,0.71986 2.083625,1.60714 0,0.88727 -0.93329,1.60714 -2.083625,1.60714 -1.150335,0 -2.083626,-0.71987 -2.083626,-1.60714 z m -3.125438,-3.54242 c -0.507883,0.44532 -1.384742,0.4855 -1.96208,0.0937 -0.577338,-0.39173 -0.629428,-1.06807 -0.121545,-1.51338 1.779764,-1.55358 4.388636,-2.53795 7.292689,-2.53795 2.904053,0 5.512925,0.98437 7.292688,2.53795 0.507884,0.44531 0.451453,1.12165 -0.121545,1.51338 -0.572997,0.39175 -1.454197,0.34822 -1.96208,-0.0937 -1.27622,-1.11495 -3.13412,-1.81472 -5.209063,-1.81472 -2.074944,0 -3.932843,0.69977 -5.209064,1.81472 z"
     id="path12852"
     style="stroke-width:0.0381238;fill:#b0e3f5;fill-opacity:1;opacity:0.25"
     inkscape:export-filename="../../../../Development/personal/thermostat-controller/assets/wifi_off.png"
     inkscape:export-xdpi="96"
     inkscape:export-ydpi="96" />
</svg>
